<svg viewBox="0 0 1024 1024" class="icon" version="1.1" xmlns="http://www.w3.org/2000/svg" fill="#000000"><g id="SVGRepo_bgCarrier" stroke-width="0"></g><g id="SVGRepo_tracerCarrier" stroke-linecap="round" stroke-linejoin="round"></g><g id="SVGRepo_iconCarrier"><path d="M852.6 168.7v56.9h-81.3v-56.9h-68.7v56.9h-81.3v-56.9h-68.6v56.9h-81.4v-56.9h-68.6v56.9h-81.3v-56.9h-68.7v56.9h-81.3v-56.9h-51.5v791.8h784.2V168.7z" fill="#773C0B"></path><path d="M504.3 63.9h15.5v104.7h-15.5z" fill="#7C3C0B"></path><path d="M560.2 268.5V139.4h-96.4v129.1h-96.3v334.1h289V268.5z" fill="#934D10"></path><path d="M769.5 361.8v43H708v-43h-51.9v43h-61.4v-43h-52v43h-61.4v-43h-51.9v43h-61.5v-43H316v43h-61.5v-43h-39v598.7h593V361.8z" fill="#B76C1A"></path><path d="M632.1 553.8H391.9c-23 0-41.8 18.8-41.8 41.8v364.9h323.8V595.6c0-23-18.8-41.8-41.8-41.8z" fill="#DC8C3C"></path><path d="M350.1 595.6v364.9H512V553.8H391.9c-23 0-41.8 18.8-41.8 41.8z" fill="#D67729"></path><path d="M526.1 749.8h-28.2c-5.8 0-10.5-4.7-10.5-10.5v-10c0-5.8 4.7-10.5 10.5-10.5h28.2c5.8 0 10.5 4.7 10.5 10.5v10c0 5.8-4.7 10.5-10.5 10.5z" fill="#494847"></path><path d="M519.7 63.5h79.2v58.3h-79.2z" fill="#F35428"></path><path d="M570.8 109.7l-12-6.8-12.3 6.1 2.7-13.5-9.5-9.9 13.7-1.5 6.4-12.1 5.7 12.5 13.5 2.4-10.1 9.2z" fill="#F1B23B"></path></g></svg>
